<svg xmlns="http://www.w3.org/2000/svg" 
  xmlns:xlink="http://www.w3.org/1999/xlink" xml:space="preserve" style="shape-rendering:geometricPrecision;text-rendering:geometricPrecision;image-rendering:optimizeQuality;" viewBox="0 0 18.7612 23.4515" x="0px" y="0px" fill-rule="evenodd" clip-rule="evenodd">
  <defs>
    <style type="text/css">
   
    .fil1 {fill:black}
    .fil0 {fill:black;fill-rule:nonzero}
   
    </style>
  </defs>
  <g>
    <path class="fil0" d="M9.3806 0c5.1806,0 9.3806,4.2 9.3806,9.3806 0,5.1807 -4.2,9.3806 -9.3806,9.3806 -5.1807,0 -9.3806,-4.1999 -9.3806,-9.3806 0,-5.1806 4.1999,-9.3806 9.3806,-9.3806zm0 0.875c-4.6976,0 -8.5057,3.808 -8.5057,8.5056 0,4.6976 3.8081,8.5057 8.5057,8.5057 4.6976,0 8.5057,-3.8081 8.5057,-8.5057 0,-4.6976 -3.8081,-8.5056 -8.5057,-8.5056z"/>
    <path class="fil1" d="M4.2673 10.7417c-1.0748,-2.687 0.4879,-4.6651 1.8025,-7.1366 0.9842,0.0469 0.7527,-0.0458 0.9932,0.9565 0.2821,0.4414 0.5641,0.8829 0.8461,1.3243 1.6117,-0.4432 1.3313,-0.4432 2.943,0 0.282,-0.4414 0.564,-0.8829 0.8461,-1.3243 0.2405,-1.0023 0.009,-0.9096 0.9932,-0.9565 1.3146,2.4715 2.8773,4.4496 1.8025,7.1366 -0.232,-2.8766 -0.4401,-2.9042 -1.9864,-5.2237 -0.1717,0.3924 -0.3434,0.7848 -0.5151,1.1772 0.9173,1.3249 1.4752,3.3765 -0.515,4.0097 -0.2084,0.2698 -0.4169,0.5396 -0.6253,0.8094 2.028,2.2044 1.1062,2.6289 -0.9197,3.6418 0.7999,-0.876 0.7425,-0.7261 1.03,-1.8761 -0.8153,-0.2575 -0.6707,-0.0865 -0.8461,-0.9197 -0.8368,0.2929 -0.6346,0.2929 -1.4714,0 -0.1754,0.8332 -0.0308,0.6622 -0.8461,0.9197 0.2875,1.15 0.2301,1.0001 1.03,1.8761 -2.0259,-1.0129 -2.9477,-1.4374 -0.9197,-3.6418 -0.2084,-0.2698 -0.4169,-0.5396 -0.6253,-0.8094 -1.9902,-0.6332 -1.4323,-2.6848 -0.515,-4.0097 -0.1717,-0.3924 -0.3434,-0.7848 -0.5151,-1.1772 -1.5463,2.3195 -1.7544,2.3471 -1.9864,5.2237zm6.2169 -0.3688c1.6566,-0.4924 1.6566,-3.1109 0,-3.6032l0 3.6032zm-2.2072 0c-1.6566,-0.4924 -1.6566,-3.1109 0,-3.6032l0 3.6032z"/>
  </g>
</svg>